# xmcd
# 
# Track frame offsets:
#     182
#     14225
#     29412
#     44265
#     58452
#     71490
#     86542
#     101892
#     116990
#     131817
# 
# Disc length: 2020
# 
# Revision: 6
# Processed by: cddbd v1.5.2PL0 Copyright (c) Steve Scherf et al.
# Submitted via: BonkEnc v1.0.8
# 
DISCID=9b07e20a
DTITLE=Randy Travis - This Is Me
DYEAR=1994
DGENRE=Country
TTITLE0=Honky Tonk Side Of Town
TTITLE1=Before You Kill Us All
TTITLE2=That's Where I Draw The Line
TTITLE3=Whisper My Name
TTITLE4=Small Y'all
TTITLE5=Runaway Train
TTITLE6=This Is Me
TTITLE7=The Box
TTITLE8=Gonna Walk That Line
TTITLE9=Oscar The Angel
EXTD=
EXTT0=
EXTT1=
EXTT2=
EXTT3=
EXTT4=
EXTT5=
EXTT6=
EXTT7=
EXTT8=
EXTT9=
PLAYORDER=
